<?xml version="1.0" encoding="utf-8"?>
<!-- Generator: Adobe Illustrator 25.4.1, SVG Export Plug-In . SVG Version: 6.00 Build 0)  -->
<svg version="1.1" id="Layer_1" xmlns="http://www.w3.org/2000/svg" xmlns:xlink="http://www.w3.org/1999/xlink" x="0px" y="0px"
	 viewBox="0 0 150 40" style="enable-background:new 0 0 150 40;" xml:space="preserve">
<style type="text/css">
	.st0{fill:#d11e46;}
	.st1{fill:#D7DF23;}
	.st2{fill:#00AEEF;}
	.st3{fill:#EF4136;}
	.st4{fill:#F7941D;}
	.st5{fill:#00A651;}
</style>
<g>
	<g>
		<path class="st0" d="M16.41,13.67L16.41,13.67c-7,0-12.67,5.67-12.67,12.67V39h4.22v-4.22v-8.44c0-4.66,3.79-8.44,8.44-8.44
			s8.44,3.79,8.44,8.44v8.44V39h4.22V26.33C29.08,19.34,23.41,13.67,16.41,13.67z"/>
		<path class="st0" d="M75,39L75,39c7,0,12.67-5.67,12.67-12.67V13.67h-4.22v4.22v8.44c0,4.66-3.79,8.44-8.44,8.44
			c-4.66,0-8.44-3.79-8.44-8.44v-8.44v-4.22h-4.22v12.67C62.33,33.33,68,39,75,39z"/>
		<path class="st0" d="M58.37,26.33L58.37,26.33c0-7-5.67-12.67-12.67-12.67h0c-7,0-12.67,5.67-12.67,12.67v0
			c0,7,5.67,12.67,12.67,12.67h0c3.24,0,6.2-1.22,8.44-3.23V39h4.22L58.37,26.33L58.37,26.33z M45.71,34.78
			c-4.66,0-8.44-3.79-8.44-8.44s3.79-8.44,8.44-8.44s8.44,3.79,8.44,8.44S50.36,34.78,45.71,34.78z"/>
		<path class="st0" d="M104.29,13.67L104.29,13.67c-3.24,0-6.2,1.22-8.44,3.23V1h-4.22v25.33h0v0c0,7,5.67,12.67,12.67,12.67h0
			c7,0,12.67-5.67,12.67-12.67v0C116.96,19.34,111.29,13.67,104.29,13.67z M104.29,34.78c-4.66,0-8.44-3.79-8.44-8.44
			s3.79-8.44,8.44-8.44s8.44,3.79,8.44,8.44S108.95,34.78,104.29,34.78z"/>
		<path class="st0" d="M146.25,26.33L146.25,26.33c0-7-5.67-12.67-12.67-12.67h0c-7,0-12.67,5.67-12.67,12.67v0
			c0,7,5.67,12.67,12.67,12.67h0c3.24,0,6.2-1.22,8.44-3.23V39h4.22L146.25,26.33L146.25,26.33z M133.59,34.78
			c-4.66,0-8.44-3.79-8.44-8.44s3.79-8.44,8.44-8.44c4.66,0,8.44,3.79,8.44,8.44S138.24,34.78,133.59,34.78z"/>
	</g>
	<circle class="st1" cx="16.41" cy="7.8" r="4.22"/>
	<circle class="st2" cx="45.71" cy="7.8" r="4.22"/>
	<circle class="st3" cx="75" cy="7.8" r="4.22"/>
	<circle class="st4" cx="133.59" cy="7.8" r="4.22"/>
	<circle class="st5" cx="104.29" cy="7.8" r="4.22"/>
</g>
</svg>
